
<svg xmlns="http://www.w3.org/2000/svg" xmlns:xlink="http://www.w3.org/1999/xlink"
	 viewBox="0 0 30 30" xml:space="preserve">
<path d="M12.8,29.9V19H9v-4h3.7l0-3c0,0-0.3-5.4,4.7-5.8c0,0,2.5-0.2,4,0.1v3.5h-2.5c0,0-2-0.2-2.1,3.1V15h4.5l-0.6,4 H17v10.9L12.8,29.9z" fill="black"/>
<path d="M15-0.1C6.7-0.1,0,6.7,0,15c0,7.6,5.5,13.8,12.8,14.9v-2.6V19H9v-4h3.7v-2.6c0-4.4,2.1-6.3,5.7-6.3c1.7,0,2.6,0.1,3.1,0.2 v3.5h-2.5c-1.5,0-2.1,1.5-2.1,3.1V15h4.5l-0.6,4H17v10.9c7.3-1,13-7.3,13-14.9C30,6.7,23.3-0.1,15-0.1z" fill="white"/>
</svg>
